<svg width="41" height="41" viewBox="0 0 41 41" fill="none" xmlns="http://www.w3.org/2000/svg">
<g filter="url(#filter0_b_6_2006)">
<rect width="41" height="41" rx="8" fill="url(#paint0_linear_6_2006)"/>
<rect x="0.5" y="0.5" width="40" height="40" rx="7.5" stroke="url(#paint1_radial_6_2006)"/>
<rect x="0.5" y="0.5" width="40" height="40" rx="7.5" stroke="url(#paint2_radial_6_2006)"/>
</g>
<g clip-path="url(#clip0_6_2006)">
<path d="M16 27C14.9 27 14.01 27.9 14.01 29C14.01 30.1 14.9 31 16 31C17.1 31 18 30.1 18 29C18 27.9 17.1 27 16 27ZM10 12C10 12.55 10.45 13 11 13H12L15.6 20.59L14.25 23.03C13.52 24.37 14.48 26 16 26H27C27.55 26 28 25.55 28 25C28 24.45 27.55 24 27 24H16L17.1 22H24.55C25.3 22 25.96 21.59 26.3 20.97L29.88 14.48C30.25 13.82 29.77 13 29.01 13H14.21L13.54 11.57C13.38 11.22 13.02 11 12.64 11H11C10.45 11 10 11.45 10 12ZM26 27C24.9 27 24.01 27.9 24.01 29C24.01 30.1 24.9 31 26 31C27.1 31 28 30.1 28 29C28 27.9 27.1 27 26 27Z" fill="url(#paint3_linear_6_2006)"/>
</g>
<defs>
<filter id="filter0_b_6_2006" x="-42" y="-42" width="125" height="125" filterUnits="userSpaceOnUse" color-interpolation-filters="sRGB">
<feFlood flood-opacity="0" result="BackgroundImageFix"/>
<feGaussianBlur in="BackgroundImage" stdDeviation="21"/>
<feComposite in2="SourceAlpha" operator="in" result="effect1_backgroundBlur_6_2006"/>
<feBlend mode="normal" in="SourceGraphic" in2="effect1_backgroundBlur_6_2006" result="shape"/>
</filter>
<linearGradient id="paint0_linear_6_2006" x1="1.69175" y1="1.05606" x2="21.0107" y2="50.6626" gradientUnits="userSpaceOnUse">
<stop stop-color="white" stop-opacity="0.4"/>
<stop offset="1" stop-color="white" stop-opacity="0"/>
</linearGradient>
<radialGradient id="paint1_radial_6_2006" cx="0" cy="0" r="1" gradientUnits="userSpaceOnUse" gradientTransform="translate(20.5 0.372728) rotate(90) scale(35.5955)">
<stop stop-color="#895CC7"/>
<stop offset="1" stop-color="#13E8D0" stop-opacity="0"/>
</radialGradient>
<radialGradient id="paint2_radial_6_2006" cx="0" cy="0" r="1" gradientUnits="userSpaceOnUse" gradientTransform="translate(20.5 41) rotate(-90) scale(20.5)">
<stop stop-color="#895CC7"/>
<stop offset="1" stop-color="#13E8D0" stop-opacity="0"/>
</radialGradient>
<linearGradient id="paint3_linear_6_2006" x1="28.5" y1="11" x2="13.5" y2="32" gradientUnits="userSpaceOnUse">
<stop stop-color="white"/>
<stop offset="1" stop-color="#B1B1B1"/>
</linearGradient>
<clipPath id="clip0_6_2006">
<rect width="24" height="24" fill="white" transform="translate(9 9)"/>
</clipPath>
</defs>
</svg>
