<svg width="100" height="107" viewBox="0 0 100 107" fill="none" xmlns="http://www.w3.org/2000/svg">
<g clip-path="url(#clip0_6_1846)">
<path d="M62.8492 57.4536C64.5902 57.6712 66.148 57.6689 67.6954 57.5849C72.771 57.308 77.6478 56.2736 82.0813 53.6442C86.0217 51.3066 88.2379 47.8448 88.8333 43.3469C89.4067 39.017 86.3021 35.2358 81.6432 34.4115C77.664 33.7075 74.1421 34.788 70.8213 36.8832C67.1254 39.2145 64.0324 42.2129 61.2527 45.5314C56.336 51.4027 52.6348 57.9585 50.2742 65.2499C48.5401 70.5957 47.7083 76.0715 48.0361 81.6827C48.2489 85.3825 49.071 89.0224 50.4696 92.4566C51.4135 94.7821 53.2741 96.0727 55.8105 96.1354C58.4891 96.2016 60.744 95.0884 62.8422 93.5906C64.8763 92.1389 66.5775 90.3378 68.1433 88.4037C68.3456 88.1538 68.4803 87.828 68.8607 87.6749C69.0381 88.0819 68.8422 88.4532 68.7821 88.8089C68.1271 92.6892 66.8936 96.3576 64.6705 99.6484C61.2758 104.672 56.1527 106.176 50.5314 103.85C47.502 102.596 44.6055 100.979 42.439 98.6066C38.6876 94.4978 35.7587 89.8393 36.1177 83.9213C36.3165 80.6454 36.9131 77.4127 37.635 74.2094C39.2015 67.2617 41.5176 60.5706 44.6997 54.191C47.5829 48.41 51.125 43.0671 55.4429 38.2382C60.7203 32.3352 66.8104 27.4499 73.9618 24.0233C79.2796 21.4767 84.857 21.0139 90.4512 23.2398C93.5147 24.4579 95.7956 26.6325 97.3921 29.4974C102.421 38.5226 99.8644 48.3582 92.3997 54.7672C89.1627 57.5475 85.2674 58.6175 81.2079 59.2306C75.4149 60.1049 69.6849 59.706 64.0653 57.9993C63.7064 57.8911 63.3151 57.8353 62.8492 57.4536Z" fill="url(#paint0_linear_6_1846)"/>
<path d="M54.8684 107C53.7701 106.843 52.6632 106.716 51.5696 106.523C44.0957 105.199 38.9622 100.923 35.8917 94.1017C33.5703 88.9453 32.8611 83.497 33.086 77.8962C33.0981 77.7895 33.1174 77.6838 33.1438 77.5796C33.4235 77.5382 33.4143 77.7587 33.468 77.8945C35.5091 83.0515 38.4003 87.6847 42.2824 91.6553C44.6141 94.0413 47.2505 96.0594 50.5337 97.0322C54.7152 98.2709 58.366 97.1842 61.5614 94.3895C62.9451 93.1807 64.2584 91.8666 65.133 90.2226C66.9734 86.7654 66.3601 82.846 63.6931 79.9616C60.9284 76.9683 57.4764 75.0953 53.7175 73.7299C45.7673 70.842 37.6316 68.5061 29.6311 65.7662C25.2959 64.2822 21.0329 62.6273 17.0798 60.2707C12.1452 57.3322 8.36717 53.2832 5.49784 48.3582C2.7603 43.66 0.96668 38.6302 0.26611 33.2395C-0.804397 25.0012 1.36841 17.6672 6.5406 11.1702C9.75444 7.13219 13.566 3.87705 18.4 1.91475C22.5433 0.230482 26.8502 -0.237498 31.2923 0.104997C36.5414 0.507932 40.9691 2.69127 44.7165 6.2463C49.0361 10.3453 51.9649 15.2485 51.8002 21.3598C51.6528 26.8432 49.5337 31.5783 45.0691 35.0556C44.0286 35.8666 42.8593 36.4664 41.5587 36.7646C41.3078 36.8222 40.987 37.0386 40.7928 36.7347C40.6379 36.4918 40.9084 36.2776 41.024 36.0641C42.4523 33.3903 43.2824 30.5312 43.2523 27.5115C43.209 23.2312 41.3073 19.873 37.894 17.251C31.3871 12.2523 23.4317 14.3493 19.3763 18.811C16.7341 21.7173 15.4654 25.2447 14.8289 29.0392C13.5128 36.8884 16.3064 43.1546 22.3028 48.1711C26.3826 51.5851 31.1056 53.8237 36.09 55.5598C42.3691 57.7472 48.8499 59.2507 55.2227 61.1128C60.3984 62.625 65.5301 64.2575 70.3173 66.7925C73.4242 68.4382 76.2762 70.3993 78.3999 73.27C80.3184 75.8603 81.2386 78.7689 81.3571 81.9739C81.5709 87.7526 79.9698 92.9816 76.5016 97.5917C72.5497 102.844 67.1954 105.771 60.692 106.677C59.8677 106.792 59.0157 106.715 58.2169 107H54.8684Z" fill="url(#paint1_linear_6_1846)"/>
</g>
<defs>
<linearGradient id="paint0_linear_6_1846" x1="44.7031" y1="99.3065" x2="78.7768" y2="36.8538" gradientUnits="userSpaceOnUse">
<stop stop-color="#9363D0"/>
<stop offset="1" stop-color="#00FFFF"/>
</linearGradient>
<linearGradient id="paint1_linear_6_1846" x1="-0.133886" y1="-0.0233657" x2="74.7275" y2="94.4434" gradientUnits="userSpaceOnUse">
<stop stop-color="#9363D0"/>
<stop offset="1" stop-color="#00FFFF"/>
</linearGradient>
<clipPath id="clip0_6_1846">
<rect width="100" height="107" fill="white"/>
</clipPath>
</defs>
</svg>
